<svg width="512" height="512" viewBox="0 0 512 512" fill="none" xmlns="http://www.w3.org/2000/svg">
<rect width="512" height="512" rx="34" fill="#333333"/>
<path d="M412.25 72.4688H359.25C350.5 72.4688 343.75 80.3962 343.75 90.0225C343.75 99.6487 350.75 107.576 359.25 107.576H412.25V178.924C412.25 188.833 419.25 196.478 427.75 196.478C436.25 196.478 443.25 188.55 443.25 178.924V107.859C443.25 88.3238 429.25 72.4688 412 72.4688H412.25ZM84 196.761C92.75 196.761 99.5 188.833 99.5 179.207V107.859H153.25C162 107.859 168.75 99.9319 168.75 90.3056C168.75 80.6794 161.75 72.7519 153.25 72.7519H99.75C82.5 72.7519 68.5 88.6069 68.5 108.143V179.49C68.5 189.399 75.5 197.044 84 197.044V196.761ZM153.25 405.141H99.75V333.793C99.75 323.884 92.75 316.239 84.25 316.239C75.75 316.239 68.75 324.167 68.75 333.793V405.141C68.75 424.676 82.75 440.531 100 440.531H153.25C162 440.531 168.75 432.604 168.75 422.978C168.75 413.351 161.75 405.424 153.25 405.424V405.141ZM428 316.239C419.25 316.239 412.5 324.167 412.5 333.793V405.141H359.5C350.75 405.141 344 413.068 344 422.694C344 432.321 351 440.248 359.5 440.248H412.5C429.75 440.248 443.75 424.393 443.75 404.858V333.51C443.75 323.601 436.75 315.956 428.25 315.956L428 316.239Z" fill="#CD54F8"/>
<path d="M209 130.51H156.75C139.5 130.51 125.5 146.365 125.5 165.9V209.501C125.5 229.037 139.5 244.892 156.75 244.892H209C226.25 244.892 240.25 229.037 240.25 209.501V165.9C240.25 146.365 226.25 130.51 209 130.51ZM209 209.501H156.75V165.9H209V209.501ZM386.5 347.1V303.499C386.5 283.963 372.5 268.108 355.25 268.108H303C285.75 268.108 271.75 283.963 271.75 303.499V347.1C271.75 366.635 285.75 382.49 303 382.49H355.25C372.5 382.49 386.5 366.635 386.5 347.1ZM303 303.499H355.25V347.1H303V303.499ZM271.75 195.628H334.75V231.019H271.75V195.628ZM271.75 144.666H386.5V180.056H271.75V144.666ZM177.25 281.981H240.25V317.372H177.25V281.981ZM125.5 332.944H240.25V368.334H125.5V332.944Z" fill="white"/>
</svg>
