<svg width="400" height="453" viewBox="0 0 400 453" fill="none" xmlns="http://www.w3.org/2000/svg">
<path d="M356.25 42.4688H303.25C294.5 42.4688 287.75 50.3962 287.75 60.0225C287.75 69.6487 294.75 77.5763 303.25 77.5763H356.25V148.924C356.25 158.833 363.25 166.478 371.75 166.478C380.25 166.478 387.25 158.55 387.25 148.924V77.8594C387.25 58.3238 373.25 42.4688 356 42.4688H356.25ZM28 166.761C36.75 166.761 43.5 158.833 43.5 149.207V77.8594H97.25C106 77.8594 112.75 69.9319 112.75 60.3056C112.75 50.6794 105.75 42.7519 97.25 42.7519H43.75C26.5 42.7519 12.5 58.6069 12.5 78.1425V149.49C12.5 159.399 19.5 167.044 28 167.044V166.761ZM97.25 375.141H43.75V303.793C43.75 293.884 36.75 286.239 28.25 286.239C19.75 286.239 12.75 294.167 12.75 303.793V375.141C12.75 394.676 26.75 410.531 44 410.531H97.25C106 410.531 112.75 402.604 112.75 392.978C112.75 383.351 105.75 375.424 97.25 375.424V375.141ZM372 286.239C363.25 286.239 356.5 294.167 356.5 303.793V375.141H303.5C294.75 375.141 288 383.068 288 392.694C288 402.321 295 410.248 303.5 410.248H356.5C373.75 410.248 387.75 394.393 387.75 374.858V303.51C387.75 293.601 380.75 285.956 372.25 285.956L372 286.239Z" fill="#333"/>
<path d="M153 100.51H100.75C83.5 100.51 69.5 116.365 69.5 135.9V179.501C69.5 199.037 83.5 214.892 100.75 214.892H153C170.25 214.892 184.25 199.037 184.25 179.501V135.9C184.25 116.365 170.25 100.51 153 100.51ZM153 179.501H100.75V135.9H153V179.501ZM330.5 317.1V273.499C330.5 253.963 316.5 238.108 299.25 238.108H247C229.75 238.108 215.75 253.963 215.75 273.499V317.1C215.75 336.635 229.75 352.49 247 352.49H299.25C316.5 352.49 330.5 336.635 330.5 317.1ZM247 273.499H299.25V317.1H247V273.499ZM215.75 165.628H278.75V201.019H215.75V165.628ZM215.75 114.666H330.5V150.056H215.75V114.666ZM121.25 251.981H184.25V287.372H121.25V251.981ZM69.5 302.944H184.25V338.334H69.5V302.944Z" fill="white"/>
</svg>
